<svg width="50" height="50" viewBox="0 0 50 50" fill="none" xmlns="http://www.w3.org/2000/svg">
<path d="M5.85354 10.825C5.76096 8.16294 7.83479 5.70825 10.6383 5.70825H39.3649C42.1684 5.70825 44.2422 8.16294 44.1496 10.825C44.0606 13.3821 44.1762 16.6946 45.0098 19.3954C45.8461 22.1047 47.2563 23.8168 49.566 24.0372V26.5321C47.2563 26.7524 45.8461 28.4645 45.0098 31.1739C44.1762 33.8747 44.0606 37.1872 44.1496 39.7442C44.2422 42.4063 42.1684 44.8606 39.3649 44.8606H10.6383C7.83479 44.8606 5.76096 42.4059 5.85354 39.7442C5.9426 37.1872 5.82698 33.8747 4.99299 31.1739C4.15706 28.4649 2.74299 26.7524 0.433228 26.5321V24.0372C2.74299 23.8172 4.15706 22.1047 4.99299 19.3954C5.82698 16.6946 5.94221 13.3821 5.85354 10.825Z" fill="url(#paint0_linear_493_815)"/>
<g filter="url(#filter0_d_493_815)">
<path d="M26.2148 35.8345C30.7535 35.8345 33.4885 33.6122 33.4885 29.9468C33.4885 27.1761 31.537 25.1703 28.6394 24.8527V24.7373C30.7683 24.391 32.4388 22.414 32.4388 20.2061C32.4388 17.0602 29.9552 15.011 26.1705 15.011H17.6549V35.8345H26.2148ZM20.9665 17.6518H25.3722C27.7672 17.6518 29.1272 18.7197 29.1272 20.6534C29.1272 22.717 27.5454 23.8714 24.6773 23.8714H20.9665V17.6518ZM20.9665 33.1937V26.3391H25.3425C28.4767 26.3391 30.103 27.4935 30.103 29.7447C30.103 31.9959 28.5211 33.1937 25.5347 33.1937H20.9665Z" fill="url(#paint1_linear_493_815)"/>
</g>
<defs>
<filter id="filter0_d_493_815" x="13.7243" y="12.0631" width="23.6947" height="28.6846" filterUnits="userSpaceOnUse" color-interpolation-filters="sRGB">
<feFlood flood-opacity="0" result="BackgroundImageFix"/>
<feColorMatrix in="SourceAlpha" type="matrix" values="0 0 0 0 0 0 0 0 0 0 0 0 0 0 0 0 0 0 127 0" result="hardAlpha"/>
<feOffset dy="0.98264"/>
<feGaussianBlur stdDeviation="1.96528"/>
<feColorMatrix type="matrix" values="0 0 0 0 0 0 0 0 0 0 0 0 0 0 0 0 0 0 0.15 0"/>
<feBlend mode="normal" in2="BackgroundImageFix" result="effect1_dropShadow_493_815"/>
<feBlend mode="normal" in="SourceGraphic" in2="effect1_dropShadow_493_815" result="shape"/>
</filter>
<linearGradient id="paint0_linear_493_815" x1="7.73423" y1="6.74444" x2="50.6673" y2="40.8252" gradientUnits="userSpaceOnUse">
<stop stop-color="#9013FE"/>
<stop offset="1" stop-color="#6610F2"/>
</linearGradient>
<linearGradient id="paint1_linear_493_815" x1="19.153" y1="16.3813" x2="28.7491" y2="32.6112" gradientUnits="userSpaceOnUse">
<stop stop-color="white"/>
<stop offset="1" stop-color="#F1E5FC"/>
</linearGradient>
</defs>
</svg>
