<svg width="50" height="50" viewBox="0 0 50 50" fill="none" xmlns="http://www.w3.org/2000/svg">
<path d="M9.22178 42.5016L5.7124 3.125H44.2874L40.7733 42.4953L24.9765 46.875L9.22178 42.5016Z" fill="#1572B6"/>
<path d="M25 43.528L37.7656 39.989L40.7687 6.34521H25V43.528Z" fill="#33A9DC"/>
<path d="M25 20.6109H31.3906L31.8312 15.6656H25V10.8359H37.1094L36.9938 12.1312L35.8078 25.4406H25V20.6109Z" fill="white"/>
<path d="M25.0297 33.1532L25.0078 33.1594L19.6297 31.7063L19.2859 27.8547H14.4375L15.1141 35.4375L25.0062 38.1844L25.0297 38.1782V33.1532Z" fill="#EBEBEB"/>
<path d="M30.9796 25.2358L30.3984 31.703L25.0125 33.1562V38.1812L34.9125 35.4374L34.9859 34.6218L35.825 25.2358H30.9796Z" fill="white"/>
<path d="M25.0171 10.8359V15.6656H13.3515L13.2546 14.5797L13.0343 12.1312L12.9187 10.8359H25.0171ZM25 20.6109V25.4406H19.689L19.5921 24.3547L19.3734 21.9063L19.2578 20.6109H25Z" fill="#EBEBEB"/>
</svg>
