<svg width="50" height="50" viewBox="0 0 50 50" fill="none" xmlns="http://www.w3.org/2000/svg">
<g clip-path="url(#clip0_493_835)">
<path d="M25 0C11.2109 0 0 11.2109 0 25C0 38.7891 11.2109 50 25 50C38.7891 50 50 38.7891 50 25C50 11.2109 38.7891 0 25 0ZM5.15625 25L25 44.8438C14.0234 44.8438 5.15625 35.9766 5.15625 25ZM29.4531 44.3359L5.66406 20.5078C7.69531 11.7188 15.5859 5.15625 25 5.15625C31.4844 5.15625 37.2266 8.24219 40.8203 13.0469L37.8906 15.8594C35.0391 11.7969 30.3516 9.17969 25 9.17969C18.125 9.17969 12.3047 13.5547 10.1172 19.6484C12.9297 22.2656 29.4531 38.5937 30.5078 39.8438C35.4687 38.0078 39.2188 33.7891 40.4297 28.5547H31.9922V24.8828L44.8828 24.9609C44.8438 34.4531 38.2813 42.3438 29.4531 44.3359Z" fill="#64328B"/>
</g>
<defs>
<clipPath id="clip0_493_835">
<rect width="50" height="50" fill="white"/>
</clipPath>
</defs>
</svg>
