<svg width="50" height="50" viewBox="0 0 50 50" fill="none" xmlns="http://www.w3.org/2000/svg">
<g clip-path="url(#clip0_493_851)">
<path d="M38.2812 0H11.7188C5.24666 0 0 5.24666 0 11.7188V38.2812C0 44.7533 5.24666 50 11.7188 50H38.2812C44.7533 50 50 44.7533 50 38.2812V11.7188C50 5.24666 44.7533 0 38.2812 0Z" fill="#F03C2E"/>
<mask id="mask0_493_851" style="mask-type:luminance" maskUnits="userSpaceOnUse" x="5" y="5" width="40" height="40">
<path d="M5.46875 5.46875H44.5312V44.5312H5.46875V5.46875Z" fill="white"/>
</mask>
<g mask="url(#mask0_493_851)">
<path d="M43.7939 23.2605L26.7394 6.20599C26.3878 5.85396 25.9396 5.6142 25.4516 5.51709C24.9636 5.41998 24.4578 5.46989 23.9982 5.66049C23.693 5.78695 23.4158 5.97232 23.1824 6.20599L19.6423 9.74603L24.1345 14.2382C25.1794 13.872 26.3757 14.1222 27.2081 14.9548C27.6044 15.3518 27.8811 15.8523 28.0065 16.399C28.1319 16.9458 28.101 17.5168 27.9173 18.0468L32.2472 22.3767C33.2947 22.0154 34.5031 22.2484 35.3392 23.0871C35.758 23.5057 36.0432 24.0392 36.1587 24.6201C36.2742 25.2009 36.2147 25.8029 35.9878 26.3499C35.6837 27.0833 35.1008 27.6659 34.3672 27.9697C33.6336 28.2734 32.8095 28.2734 32.0759 27.9697C31.7126 27.8191 31.3826 27.5986 31.1046 27.3204C30.2257 26.4415 30.0085 25.1476 30.4529 24.0648L26.4148 20.0267V30.6531C26.7079 30.7981 26.9758 30.9893 27.2081 31.2195C27.7695 31.7809 28.0849 32.5423 28.0849 33.3362C28.0849 34.1301 27.7695 34.8915 27.2081 35.4529C26.6468 36.0143 25.8854 36.3296 25.0914 36.3296C24.2975 36.3296 23.5361 36.0143 22.9747 35.4529C22.5557 35.0344 22.2704 34.501 22.1547 33.9202C22.0391 33.3394 22.0984 32.7374 22.3251 32.1904C22.4757 31.8271 22.6964 31.4972 22.9747 31.2195C23.264 30.9314 23.5851 30.7128 23.955 30.5663V19.8412C23.588 19.6911 23.2547 19.4691 22.9747 19.1882C22.5545 18.7684 22.2687 18.2329 22.1539 17.65C22.0391 17.0671 22.1005 16.4632 22.3302 15.9154L17.8992 11.487L6.20483 23.1691C5.85278 23.5209 5.61299 23.9692 5.51582 24.4573C5.41865 24.9455 5.46845 25.4515 5.65893 25.9113C5.78551 26.2166 5.97101 26.4939 6.20483 26.7275L23.2605 43.7806C23.494 44.0142 23.7712 44.1996 24.0763 44.3261C24.6927 44.5813 25.3853 44.5813 26.0017 44.3261C26.3068 44.1996 26.584 44.0142 26.8175 43.7806L43.7939 26.8312C44.0276 26.5976 44.2131 26.3203 44.3396 26.015C44.4661 25.7097 44.5313 25.3825 44.5314 25.0521C44.5314 24.7216 44.4663 24.3943 44.3397 24.089C44.2132 23.7837 44.0277 23.5064 43.7939 23.2728" fill="white"/>
</g>
</g>
<defs>
<clipPath id="clip0_493_851">
<rect width="50" height="50" fill="white"/>
</clipPath>
</defs>
</svg>
