<svg width="50" height="50" viewBox="0 0 50 50" fill="none" xmlns="http://www.w3.org/2000/svg">
<path d="M9.22187 42.5016L5.71094 3.125H44.2891L40.7734 42.4953L24.9766 46.875L9.22187 42.5016Z" fill="#E44F26"/>
<path d="M25 43.528L37.7656 39.989L40.7687 6.34521H25V43.528Z" fill="#F1662A"/>
<path d="M25 20.9483H18.6094L18.1688 16.003H25V11.1733H12.8906L13.0063 12.4702L14.1922 25.778H25V20.9483ZM25 33.4905L24.9781 33.4968L19.6 32.0452L19.2563 28.1937H14.4078L15.0844 35.7749L24.9781 38.5218L25 38.5155V33.4905Z" fill="#EBEBEB"/>
<path d="M24.9829 20.9483V25.778H30.9298L30.3704 32.0421L24.9829 33.4952V38.5202L34.8845 35.7749L34.9563 34.9593L36.0907 22.2452L36.2095 20.9483H34.9079H24.9829ZM24.9829 11.1733V16.003H36.6485L36.7454 14.9187L36.9657 12.4702L37.0813 11.1733H24.9829Z" fill="white"/>
</svg>
