<svg width="50" height="50" viewBox="0 0 50 50" fill="none" xmlns="http://www.w3.org/2000/svg">
<g clip-path="url(#clip0_493_804)">
<path d="M0 0H50V50H0V0Z" fill="#F7DF1E"/>
<path d="M13.1469 41.7835L16.9731 39.4679C17.7114 40.7767 18.3829 41.8841 19.9936 41.8841C21.5375 41.8841 22.5112 41.2802 22.5112 38.931V22.9548H27.2098V38.9974C27.2098 43.864 24.3571 46.0792 20.195 46.0792C16.4362 46.0792 14.2543 44.1325 13.1467 41.7831M29.762 41.28L33.5877 39.0649C34.595 40.7097 35.904 41.9179 38.2196 41.9179C40.1667 41.9179 41.4081 40.9444 41.4081 39.6019C41.4081 37.9909 40.1327 37.4202 37.9846 36.4808L36.8102 35.9769C33.4202 34.5341 31.1715 32.7216 31.1715 28.8954C31.1715 25.3712 33.8565 22.686 38.052 22.686C41.0391 22.686 43.1872 23.7267 44.7309 26.4452L41.0723 28.7948C40.2667 27.3517 39.3944 26.7812 38.0518 26.7812C36.6756 26.7812 35.803 27.6538 35.803 28.7948C35.803 30.2044 36.6756 30.7753 38.6893 31.6479L39.8639 32.1513C43.8581 33.8632 46.1067 35.6083 46.1067 39.5349C46.1067 43.7642 42.784 46.0798 38.3202 46.0798C33.9571 46.0798 31.1377 43.9989 29.7618 41.2802" fill="black"/>
</g>
<defs>
<clipPath id="clip0_493_804">
<rect width="50" height="50" fill="white"/>
</clipPath>
</defs>
</svg>
