<svg width="50" height="50" viewBox="0 0 50 50" fill="none" xmlns="http://www.w3.org/2000/svg">
<g clip-path="url(#clip0_493_847)">
<path d="M38.2812 0H11.7188C5.24666 0 0 5.24666 0 11.7188V38.2812C0 44.7533 5.24666 50 11.7188 50H38.2812C44.7533 50 50 44.7533 50 38.2812V11.7188C50 5.24666 44.7533 0 38.2812 0Z" fill="#F4F2ED"/>
<path fill-rule="evenodd" clip-rule="evenodd" d="M42.1574 15.2958C42.1699 15.3433 42.1766 15.3923 42.1766 15.4417V23.0978C42.1766 23.196 42.151 23.2925 42.1025 23.3774C42.0542 23.4623 41.9843 23.5328 41.9 23.5819L35.5629 27.2815V34.6146C35.5632 34.7123 35.5379 34.8083 35.4896 34.8933C35.4414 34.9783 35.3718 35.0491 35.2877 35.0989L22.0596 42.8206C22.0293 42.838 21.9963 42.8491 21.9633 42.861C21.9508 42.8653 21.9393 42.873 21.9262 42.8765C21.8337 42.9011 21.7364 42.9011 21.6439 42.8765C21.6289 42.8722 21.615 42.8638 21.6006 42.8583C21.5703 42.8472 21.5387 42.8374 21.5098 42.8206L8.28438 35.0989C8.20016 35.0497 8.13038 34.9792 8.08203 34.8944C8.0334 34.8092 8.00782 34.7127 8.00781 34.6146V11.6464C8.00781 11.596 8.01465 11.5472 8.02715 11.4999C8.03105 11.4837 8.04082 11.469 8.04629 11.453C8.05664 11.4237 8.06621 11.3939 8.08145 11.3665C8.0918 11.3483 8.10684 11.3337 8.11934 11.3171C8.13496 11.2946 8.14961 11.2716 8.16816 11.2521C8.18379 11.236 8.20469 11.2241 8.22246 11.2103C8.24238 11.1935 8.26035 11.1753 8.28301 11.162H8.28379L14.8965 7.30127C14.98 7.2525 15.075 7.22681 15.1718 7.22681C15.2685 7.22681 15.3635 7.2525 15.4471 7.30127L22.0602 11.162H22.0615C22.0834 11.1761 22.1021 11.1935 22.1221 11.2095C22.1398 11.2235 22.1598 11.236 22.1756 11.2515C22.1949 11.2716 22.2088 11.2946 22.2252 11.3171C22.2369 11.3337 22.2527 11.3483 22.2623 11.3665C22.2781 11.3944 22.2871 11.4237 22.2982 11.453C22.3037 11.469 22.3133 11.4837 22.3174 11.5005C22.3301 11.5481 22.3365 11.5972 22.3367 11.6464V25.9921L27.8473 22.7747V15.4407C27.8473 15.3919 27.8541 15.3425 27.8666 15.2958C27.8715 15.279 27.8803 15.2644 27.8859 15.2483C27.8969 15.219 27.9064 15.189 27.9217 15.1618C27.932 15.1437 27.9471 15.129 27.9588 15.1122C27.9754 15.0899 27.9891 15.0669 28.0084 15.0474C28.0242 15.0314 28.0441 15.0194 28.0621 15.0054C28.0826 14.9888 28.1006 14.9706 28.1227 14.9573H28.1234L34.7371 11.0964C34.8206 11.0475 34.9156 11.0218 35.0123 11.0218C35.109 11.0218 35.204 11.0475 35.2875 11.0964L41.9006 14.9573C41.924 14.9714 41.9418 14.9886 41.9625 15.0048C41.9797 15.0187 41.9996 15.0314 42.0154 15.0466C42.0348 15.0669 42.0484 15.0899 42.065 15.1122C42.0773 15.129 42.0926 15.1435 42.1021 15.1618C42.118 15.1892 42.127 15.219 42.1379 15.2483C42.1441 15.2644 42.1533 15.279 42.1574 15.2958ZM41.074 22.7747V16.4081L38.7598 17.7589L35.5627 19.6255V25.9921L41.0746 22.7747H41.074ZM34.4609 34.2915V27.9208L31.3162 29.7421L22.3359 34.9392V41.3698L34.4609 34.2915ZM9.11016 12.6128V34.2915L21.2338 41.3692V34.9398L14.9002 31.305L14.8982 31.3036L14.8953 31.3022C14.874 31.2897 14.8562 31.2716 14.8361 31.2562C14.8189 31.2423 14.799 31.2312 14.784 31.2157L14.7826 31.2138C14.7646 31.1962 14.7521 31.1747 14.7371 31.155C14.7234 31.1362 14.7068 31.1202 14.6959 31.1007L14.6951 31.0985C14.6826 31.0776 14.675 31.0524 14.6662 31.0288C14.6572 31.0079 14.6455 30.9884 14.64 30.9659V30.9651C14.6332 30.9388 14.6318 30.9108 14.6289 30.8835C14.6262 30.8626 14.6207 30.8417 14.6207 30.8208V15.8304L11.4244 13.963L9.11016 12.6134V12.6128ZM15.1727 8.43018L9.66289 11.6466L15.1713 14.8626L20.6805 11.6458L15.1713 8.43037L15.1727 8.43018ZM18.0381 28.5013L21.2346 26.6355V12.6128L18.9201 13.9638L15.7232 15.8302V29.853L18.0381 28.5013ZM35.0125 12.2255L29.5031 15.4417L35.0125 18.6577L40.5209 15.4409L35.0125 12.2255ZM34.4611 19.6255L31.2641 17.7589L28.95 16.4081V22.7747L32.1463 24.6405L34.4611 25.9921V19.6255ZM21.7844 33.9728L29.865 29.2946L33.9045 26.9571L28.3994 23.7431L22.0609 27.4435L16.284 30.8159L21.7844 33.9728Z" fill="#FF2D20"/>
</g>
<defs>
<clipPath id="clip0_493_847">
<rect width="50" height="50" fill="white"/>
</clipPath>
</defs>
</svg>
