<svg width="50" height="50" viewBox="0 0 50 50" fill="none" xmlns="http://www.w3.org/2000/svg">
<g clip-path="url(#clip0_493_831)">
<path d="M38.2812 0H11.7188C5.24666 0 0 5.24666 0 11.7188V38.2812C0 44.7533 5.24666 50 11.7188 50H38.2812C44.7533 50 50 44.7533 50 38.2812V11.7188C50 5.24666 44.7533 0 38.2812 0Z" fill="#F4F2ED"/>
<path d="M23.7209 5.4793C23.637 5.48691 23.3696 5.51367 23.129 5.53262C17.5809 6.03281 12.384 9.02656 9.09243 13.6277C7.25981 16.1861 6.08735 19.0881 5.64458 22.1621C5.48813 23.2352 5.46899 23.5521 5.46899 25.0068C5.46899 26.4617 5.48813 26.7787 5.64478 27.8516C6.7061 35.1867 11.926 41.3498 19.0053 43.6332C20.2731 44.0418 21.6094 44.3205 23.1292 44.4885C23.7211 44.5533 26.2793 44.5533 26.8713 44.4885C29.4946 44.1982 31.7168 43.5492 33.9086 42.4303C34.2446 42.2586 34.3096 42.2127 34.2637 42.1746C34.2332 42.1516 32.8012 40.2309 31.0831 37.9094L27.9596 33.69L24.0456 27.8975C21.892 24.7129 20.1204 22.1086 20.1049 22.1086C20.0897 22.1049 20.0745 24.6785 20.0668 27.8211C20.0553 33.3234 20.0516 33.5449 19.9829 33.6746C19.8836 33.8617 19.8073 33.9381 19.6467 34.0223C19.5247 34.0832 19.4176 34.0947 18.8411 34.0947H18.1805L18.0047 33.984C17.8959 33.9158 17.8075 33.8195 17.7489 33.7053L17.6688 33.5334L17.6766 25.8775L17.6879 18.2178L17.8063 18.0687C17.8674 17.9887 17.9973 17.8855 18.0889 17.8359C18.2454 17.7596 18.3065 17.752 18.967 17.752C19.7461 17.752 19.8758 17.7824 20.0784 18.0039C20.1356 18.065 22.2547 21.2572 24.7903 25.1023C27.3572 28.9943 29.9257 32.8853 32.4958 36.7752L35.5887 41.4605L35.7454 41.3574C37.1313 40.4562 38.5977 39.1732 39.7584 37.8367C42.229 34.9996 43.8213 31.5402 44.3559 27.8516C44.5124 26.7787 44.5315 26.4617 44.5315 25.0068C44.5315 23.5521 44.5124 23.2352 44.3559 22.1621C43.2944 14.827 38.0745 8.66406 30.9952 6.38066C29.7465 5.97578 28.4178 5.69707 26.9286 5.5291C26.562 5.49082 24.0379 5.44902 23.7211 5.47949M31.7168 17.2937C31.9001 17.3854 32.0491 17.5609 32.1026 17.7441C32.1331 17.8436 32.1407 19.9666 32.1331 24.751L32.1215 31.6166L30.9112 29.7607L29.6969 27.9051V22.9145C29.6969 19.6879 29.7122 17.874 29.735 17.7861C29.7961 17.5725 29.9297 17.4045 30.1131 17.3051C30.2696 17.225 30.327 17.2172 30.9264 17.2172C31.4917 17.2172 31.5909 17.225 31.7168 17.2937Z" fill="black"/>
</g>
<defs>
<clipPath id="clip0_493_831">
<rect width="50" height="50" fill="white"/>
</clipPath>
</defs>
</svg>
