<svg width="50" height="50" viewBox="0 0 50 50" fill="none" xmlns="http://www.w3.org/2000/svg">
<g clip-path="url(#clip0_493_859)">
<path d="M38.2812 0H11.7188C5.24666 0 0 5.24666 0 11.7188V38.2812C0 44.7533 5.24666 50 11.7188 50H38.2812C44.7533 50 50 44.7533 50 38.2812V11.7188C50 5.24666 44.7533 0 38.2812 0Z" fill="#F4F2ED"/>
<path d="M23.4137 6.07737C24.3745 5.52756 25.6256 5.52502 26.5854 6.07737C31.4139 8.80588 36.244 11.5299 41.0717 14.26C41.9799 14.7715 42.5872 15.7821 42.578 16.8283V33.2434C42.5848 34.333 41.9174 35.3678 40.9594 35.8676C36.1467 38.5811 31.3364 41.2977 26.5245 44.0112C25.5442 44.5717 24.2678 44.5285 23.3178 43.9219C21.875 43.0856 20.4297 42.2531 18.9868 41.4176C18.6918 41.2418 18.3594 41.102 18.1512 40.816C18.3354 40.568 18.6645 40.5371 18.9319 40.4287C19.534 40.2371 20.0874 39.9297 20.6405 39.6315C20.7805 39.5358 20.9512 39.5725 21.0854 39.658C22.3192 40.3655 23.5422 41.0936 24.7801 41.7942C25.0442 41.9467 25.3116 41.7442 25.5374 41.6184C30.26 38.949 34.9885 36.2901 39.7106 33.6199C39.8856 33.5358 39.9823 33.35 39.968 33.1584C39.9713 27.7434 39.9688 22.3276 39.9698 16.9123C39.9897 16.6951 39.8639 16.4951 39.6672 16.4061C34.8713 13.7051 30.0776 11.0002 25.2825 8.29866C25.1994 8.2415 25.101 8.21082 25.0002 8.21064C24.8994 8.21047 24.8009 8.24081 24.7176 8.29768C19.9223 11.0002 15.1297 13.7078 10.3344 16.4084C10.1385 16.4977 10.0071 16.6944 10.0303 16.9123C10.0313 22.3276 10.0303 27.7434 10.0303 33.1592C10.022 33.2527 10.0426 33.3466 10.0892 33.4281C10.1359 33.5096 10.2064 33.5749 10.2913 33.6151C11.5708 34.3406 12.852 35.0612 14.1325 35.7844C14.854 36.1725 15.7395 36.4033 16.5344 36.1059C17.2356 35.8543 17.7272 35.1385 17.7139 34.394C17.7206 29.0106 17.7106 23.6264 17.7188 18.2436C17.7012 18.0047 17.928 17.8073 18.1604 17.8299C18.7752 17.8256 19.3909 17.8215 20.0057 17.8315C20.2624 17.8256 20.4389 18.083 20.4073 18.3237C20.4047 23.7412 20.4139 29.1588 20.4032 34.5762C20.4047 36.0201 19.8116 37.5912 18.476 38.2977C16.8309 39.1498 14.7973 38.9692 13.1719 38.152C11.7649 37.4496 10.4219 36.6207 9.03989 35.8684C8.07934 35.3713 7.41528 34.3324 7.42212 33.2436V16.8283C7.41196 15.7604 8.0436 14.7315 8.97974 14.2274C13.7916 11.5119 18.6028 8.79417 23.4137 6.07737Z" fill="#81CD39"/>
<path d="M27.6117 17.4483C29.7103 17.3132 31.957 17.3682 33.8455 18.4022C35.3078 19.1944 36.1184 20.8573 36.1441 22.4817C36.1033 22.7007 35.8742 22.8216 35.665 22.8065C35.0562 22.8057 34.4471 22.8149 33.8383 22.8024C33.5799 22.8124 33.4299 22.5743 33.3975 22.346C33.2225 21.5686 32.7984 20.7989 32.067 20.4239C30.9439 19.8618 29.642 19.8901 28.4172 19.9018C27.5234 19.9491 26.5621 20.0266 25.8047 20.5522C25.2232 20.9505 25.0467 21.7544 25.2541 22.4018C25.4498 22.8667 25.9863 23.0167 26.4254 23.155C28.9547 23.8165 31.6348 23.7505 34.1154 24.621C35.1428 24.9759 36.1475 25.6659 36.499 26.7413C36.959 28.1827 36.7574 29.9053 35.7318 31.0624C34.9002 32.0145 33.6891 32.5329 32.4811 32.8143C30.874 33.1727 29.2062 33.1819 27.5742 33.0227C26.0396 32.8477 24.4426 32.4446 23.258 31.3991C22.2449 30.5194 21.7502 29.1487 21.7992 27.8261C21.8109 27.6026 22.0334 27.4468 22.2475 27.4651C22.8605 27.4602 23.4738 27.4585 24.0869 27.4661C24.3318 27.4485 24.5135 27.6602 24.526 27.8911C24.6391 28.6315 24.9174 29.4089 25.5631 29.8477C26.8094 30.6518 28.3732 30.5968 29.8002 30.6192C30.9822 30.5669 32.3094 30.5511 33.2742 29.7696C33.7832 29.3239 33.934 28.5782 33.7965 27.9368C33.6475 27.3952 33.0809 27.1429 32.5943 26.9778C30.0977 26.1882 27.3875 26.4747 24.915 25.5815C23.9111 25.2268 22.9404 24.5561 22.5549 23.5249C22.0168 22.0653 22.2633 20.2598 23.3963 19.1421C24.501 18.0298 26.0955 17.6014 27.6117 17.4483Z" fill="#81CD39"/>
</g>
<defs>
<clipPath id="clip0_493_859">
<rect width="50" height="50" fill="white"/>
</clipPath>
</defs>
</svg>
