<svg width="50" height="27" viewBox="0 0 50 27" fill="none" xmlns="http://www.w3.org/2000/svg">
<g clip-path="url(#clip0_493_837)">
<path d="M25 26.2891C38.8071 26.2891 50 20.4041 50 13.1445C50 5.88501 38.8071 0 25 0C11.1929 0 0 5.88501 0 13.1445C0 20.4041 11.1929 26.2891 25 26.2891Z" fill="url(#paint0_radial_493_837)"/>
<path d="M25 25.3125C38.2678 25.3125 49.0234 19.8647 49.0234 13.1445C49.0234 6.42435 38.2678 0.976562 25 0.976562C11.7322 0.976562 0.976562 6.42435 0.976562 13.1445C0.976562 19.8647 11.7322 25.3125 25 25.3125Z" fill="#6181B6"/>
<path d="M29.8632 17.0898L31.0547 10.957C31.3281 9.57031 31.0937 8.53516 30.3906 7.89063C29.707 7.26563 28.5351 6.95312 26.8164 6.95312H24.7461L25.332 3.90625C25.3515 3.78906 25.332 3.67187 25.2539 3.57422C25.1757 3.47656 25.0781 3.4375 24.9609 3.4375H22.1093C21.914 3.4375 21.7578 3.57422 21.7187 3.75L20.4492 10.2539C20.332 9.51172 20.0586 8.88672 19.5898 8.37891C18.75 7.42188 17.4414 6.93359 15.664 6.93359H10.1757C9.98043 6.93359 9.82418 7.07031 9.78512 7.24609L7.22653 20.4492C7.207 20.5664 7.22653 20.6836 7.30465 20.7813C7.38278 20.8789 7.48043 20.918 7.59762 20.918H10.4687C10.664 20.918 10.8203 20.7813 10.8593 20.6055L11.4843 17.4219H13.6132C14.7265 17.4219 15.6836 17.3047 16.4062 17.0703C17.1679 16.8164 17.8515 16.4063 18.457 15.8398C18.9453 15.3906 19.3554 14.8828 19.6679 14.3359L19.1601 16.9727C19.1406 17.0898 19.1601 17.207 19.2382 17.3047C19.3164 17.4023 19.414 17.4414 19.5312 17.4414H22.3828C22.5781 17.4414 22.7343 17.3047 22.7734 17.1289L24.1797 9.90234H26.1328C26.9726 9.90234 27.207 10.0586 27.2851 10.1367C27.3437 10.1953 27.4609 10.4297 27.3242 11.1523L26.1914 16.9922C26.1718 17.1094 26.1914 17.2266 26.2695 17.3242C26.3476 17.4219 26.4453 17.4609 26.5625 17.4609H29.4922C29.6679 17.4023 29.8242 17.2656 29.8632 17.0898ZM16.6601 12.0117C16.4843 12.9297 16.1523 13.5938 15.664 13.9648C15.1757 14.3359 14.375 14.5313 13.3203 14.5313H12.0507L12.9687 9.80469H14.6093C15.8203 9.80469 16.3086 10.0586 16.5039 10.2734C16.7578 10.5859 16.8164 11.1914 16.6601 12.0117ZM42.0507 8.37891C41.2109 7.42188 39.9023 6.93359 38.125 6.93359H32.5976C32.4023 6.93359 32.2461 7.07031 32.207 7.24609L29.6484 20.4297C29.6289 20.5469 29.6484 20.6641 29.7265 20.7617C29.8047 20.8594 29.9023 20.8984 30.0195 20.8984H32.8906C33.0859 20.8984 33.2422 20.7617 33.2812 20.5859L33.9062 17.4023H36.0351C37.1484 17.4023 38.1054 17.2852 38.8281 17.0508C39.5898 16.7969 40.2734 16.3867 40.8789 15.8203C41.3867 15.3516 41.8164 14.8242 42.1289 14.2578C42.4414 13.6914 42.6757 13.0664 42.8125 12.3828C43.1445 10.6836 42.8906 9.35547 42.0507 8.37891ZM39.0625 12.0117C38.8867 12.9297 38.5547 13.5938 38.0664 13.9648C37.5781 14.3359 36.7773 14.5313 35.7226 14.5313H34.4531L35.3711 9.80469H37.0117C38.2226 9.80469 38.7109 10.0586 38.9062 10.2734C39.1797 10.5859 39.2382 11.1914 39.0625 12.0117Z" fill="white"/>
<path d="M14.6094 9.41406C15.7031 9.41406 16.4258 9.60937 16.7969 10.0195C17.168 10.4297 17.2461 11.1133 17.0508 12.0898C16.8555 13.1055 16.4648 13.8477 15.8984 14.2773C15.332 14.707 14.4727 14.9219 13.3203 14.9219H11.582L12.6563 9.41406H14.6094ZM7.61719 20.5078H10.4883L11.1719 17.0117H13.6328C14.7266 17.0117 15.6055 16.8945 16.3086 16.6602C17.0117 16.4258 17.6367 16.0547 18.2227 15.5078C18.7109 15.0586 19.1016 14.5703 19.3945 14.043C19.6875 13.5156 19.9023 12.9297 20.0195 12.2852C20.332 10.7227 20.0977 9.51172 19.3359 8.63281C18.5742 7.75391 17.3633 7.32422 15.7031 7.32422H10.1758L7.61719 20.5078ZM22.1289 3.82812H24.9805L24.2969 7.32422H26.8359C28.4375 7.32422 29.5313 7.59766 30.1367 8.16406C30.7422 8.73047 30.918 9.62891 30.6836 10.8789L29.4922 17.0117H26.6016L27.7344 11.1719C27.8711 10.5078 27.8125 10.0586 27.5977 9.82422C27.3828 9.58984 26.8945 9.45313 26.1719 9.45313H23.8867L22.4219 17.0117H19.5703L22.1289 3.82812ZM37.0117 9.41406C38.1055 9.41406 38.8281 9.60937 39.1992 10.0195C39.5703 10.4297 39.6484 11.1133 39.4531 12.0898C39.2578 13.1055 38.8672 13.8477 38.3008 14.2773C37.7344 14.707 36.875 14.9219 35.7227 14.9219H33.9844L35.0586 9.41406H37.0117ZM30.0195 20.5078H32.8906L33.5742 17.0117H36.0352C37.1289 17.0117 38.0078 16.8945 38.7109 16.6602C39.4141 16.4258 40.0391 16.0547 40.625 15.5078C41.1133 15.0586 41.5039 14.5703 41.7969 14.043C42.0898 13.5156 42.3047 12.9297 42.4219 12.2852C42.7344 10.7227 42.5 9.51172 41.7383 8.63281C40.9766 7.75391 39.7656 7.32422 38.1055 7.32422H32.5781L30.0195 20.5078Z" fill="#000004"/>
</g>
<defs>
<radialGradient id="paint0_radial_493_837" cx="0" cy="0" r="1" gradientUnits="userSpaceOnUse" gradientTransform="translate(15.0101 4.62256) scale(32.8311 32.8311)">
<stop stop-color="white"/>
<stop offset="0.5" stop-color="#4C6B97"/>
<stop offset="1" stop-color="#231F20"/>
</radialGradient>
<clipPath id="clip0_493_837">
<rect width="50" height="26.3672" fill="white"/>
</clipPath>
</defs>
</svg>
