<svg width="50" height="50" viewBox="0 0 50 50" fill="none" xmlns="http://www.w3.org/2000/svg">
<g clip-path="url(#clip0_493_807)">
<path d="M38.2812 0H11.7188C5.24666 0 0 5.24666 0 11.7188V38.2812C0 44.7533 5.24666 50 11.7188 50H38.2812C44.7533 50 50 44.7533 50 38.2812V11.7188C50 5.24666 44.7533 0 38.2812 0Z" fill="#CD6799"/>
<mask id="mask0_493_807" style="mask-type:luminance" maskUnits="userSpaceOnUse" x="5" y="10" width="40" height="30">
<path d="M5.46875 10.3516H44.5312V39.6307H5.46875V10.3516Z" fill="white"/>
</mask>
<g mask="url(#mask0_493_807)">
<path d="M39.0834 27.1802C37.7213 27.1873 36.5377 27.5154 35.5465 28.0002C35.1828 27.28 34.8191 26.6382 34.7549 26.1675C34.6836 25.6185 34.598 25.2834 34.6836 24.6273C34.7691 23.9713 35.1543 23.0373 35.147 22.966C35.14 22.8945 35.0615 22.5595 34.2771 22.5523C33.4927 22.5453 32.8154 22.7021 32.7369 22.9089C32.6584 23.1156 32.5088 23.5863 32.409 24.0713C32.2734 24.7843 30.84 27.33 30.0201 28.6634C29.7562 28.1429 29.5281 27.6865 29.4781 27.3228C29.4068 26.7738 29.3213 26.4386 29.4068 25.7826C29.4924 25.1265 29.8775 24.1923 29.8703 24.1211C29.8633 24.0498 29.7847 23.7146 29.0004 23.7076C28.216 23.7004 27.5384 23.8572 27.4601 24.064C27.3816 24.2709 27.2961 24.7558 27.132 25.2263C26.9681 25.697 25.0642 29.947 24.565 31.0451C24.3633 31.4895 24.1517 31.9293 23.9304 32.3642C23.9304 32.3642 23.9232 32.3857 23.9019 32.4213C23.8323 32.5576 23.761 32.6931 23.6879 32.8277V32.8349C23.581 33.0275 23.4668 33.2056 23.4097 33.2056C23.367 33.2056 23.2886 32.6923 23.424 31.9935C23.7093 30.5173 24.3867 28.2213 24.3797 28.1429C24.3797 28.1002 24.508 27.7007 23.9375 27.4939C23.3812 27.2871 23.1816 27.6295 23.1316 27.6295C23.0818 27.6295 23.0461 27.7507 23.0461 27.7507C23.0461 27.7507 23.6666 25.1693 21.8625 25.1693C20.7357 25.1693 19.1812 26.4029 18.4113 27.5154C17.5358 27.9918 16.661 28.4695 15.7869 28.9486C15.3664 29.1839 14.9314 29.4193 14.5248 29.6404C14.4963 29.6119 14.4677 29.5761 14.4392 29.5476C12.2572 27.2158 8.22126 25.5687 8.39235 22.4382C8.45661 21.2972 8.8488 18.3023 16.1435 14.6656C22.1476 11.7064 26.9254 12.5263 27.7525 14.3447C28.9361 16.9404 25.1925 21.7607 18.9888 22.4595C16.6213 22.7234 15.3806 21.8107 15.067 21.4685C14.7388 21.1119 14.6888 21.0906 14.5675 21.1619C14.3679 21.2687 14.4963 21.5896 14.5675 21.775C14.7531 22.2599 15.516 23.1156 16.8066 23.5363C17.9476 23.9072 20.7215 24.114 24.08 22.8162C27.8381 21.3615 30.7759 17.3181 29.9131 13.9312C29.0504 10.4941 23.3457 9.36031 17.9476 11.2785C14.7386 12.4195 11.259 14.2164 8.75603 16.5552C5.78239 19.3365 5.31188 21.7537 5.50446 22.7662C6.19606 26.3601 11.1519 28.699 13.1343 30.4318C13.0345 30.4888 12.9418 30.5388 12.8634 30.5816C11.8722 31.0736 8.09294 33.0488 7.15153 35.1382C6.082 37.5056 7.32282 39.2027 8.14274 39.4308C10.6884 40.1369 13.3054 38.8675 14.7103 36.7711C16.115 34.6746 15.9439 31.9507 15.2949 30.7029C15.2879 30.6871 15.2783 30.6726 15.2664 30.6601C15.5232 30.5103 15.7869 30.3535 16.0437 30.2037C16.5156 29.9248 16.9935 29.6561 17.4769 29.3978C17.2345 30.0611 17.0562 30.8525 16.9707 31.9935C16.8638 33.3341 17.4129 35.074 18.133 35.7586C18.4539 36.058 18.8318 36.0652 19.0744 36.0652C19.9158 36.0652 20.2937 35.3664 20.7144 34.5392C21.2277 33.5265 21.6914 32.35 21.6914 32.35C21.6914 32.35 21.1136 35.5304 22.6824 35.5304C23.2529 35.5304 23.8304 34.7888 24.0873 34.4109V34.4179C24.0873 34.4179 24.1015 34.3966 24.13 34.3466C24.1871 34.2539 24.2226 34.1968 24.2226 34.1968V34.1826C24.4509 33.7834 24.9642 32.8777 25.7273 31.373C26.7113 29.4336 27.6597 27.0091 27.6597 27.0091C27.6597 27.0091 27.7453 27.6009 28.0377 28.5849C28.2088 29.1627 28.5654 29.7972 28.8506 30.4105C28.6224 30.7314 28.4799 30.9095 28.4799 30.9095L28.4869 30.9168C28.3015 31.1591 28.1019 31.423 27.8808 31.6797C27.1035 32.6068 26.1765 33.6693 26.0482 33.9759C25.8984 34.3396 25.9341 34.6033 26.2193 34.8173C26.4261 34.9742 26.7968 34.9955 27.1748 34.9742C27.8736 34.9242 28.3658 34.7531 28.6082 34.6461C28.9861 34.5107 29.4283 34.3039 29.8418 33.9972C30.6049 33.4339 31.0683 32.6281 31.0256 31.5656C31.0041 30.9808 30.8115 30.3963 30.5763 29.847C30.6476 29.7472 30.7117 29.6474 30.783 29.5476C31.9883 27.7863 32.9222 25.8539 32.9222 25.8539C32.9222 25.8539 33.0078 26.4457 33.3002 27.4298C33.4427 27.9289 33.7351 28.4709 33.992 28.9986C32.8582 29.9185 32.1593 30.988 31.9097 31.6869C31.4605 32.9847 31.8099 33.5693 32.473 33.7048C32.7726 33.7691 33.2004 33.6265 33.5142 33.491C33.9134 33.3627 34.3842 33.1416 34.8334 32.8134C35.5963 32.2502 36.3308 31.4658 36.2881 30.4033C36.2666 29.9185 36.1383 29.4406 35.9599 28.9771C36.9226 28.5779 38.1634 28.3568 39.7465 28.5422C43.1408 28.9416 43.8111 31.0593 43.6826 31.9507C43.5543 32.842 42.8412 33.3269 42.6058 33.4767C42.3707 33.6265 42.2922 33.6763 42.3136 33.7834C42.3422 33.9402 42.4562 33.933 42.6558 33.9045C42.934 33.8547 44.4384 33.1843 44.5027 31.5443C44.6097 29.4478 42.6131 27.1588 39.0834 27.1802ZM12.899 36.0082C11.7724 37.2345 10.2037 37.6982 9.52614 37.306C8.7988 36.8851 9.08396 35.074 10.4675 33.7761C11.3088 32.9847 12.3927 32.2502 13.1129 31.8009C13.2769 31.7011 13.5193 31.5586 13.8117 31.3802C13.8617 31.3517 13.8902 31.3375 13.8902 31.3375L14.0613 31.2304C14.5675 33.0845 14.0826 34.7175 12.899 36.0082ZM21.0996 30.4318C20.7074 31.3875 19.8875 33.8332 19.3883 33.6978C18.9605 33.5836 18.6967 31.7297 19.3027 29.897C19.6093 28.9771 20.2582 27.8791 20.6361 27.4511C21.2494 26.7666 21.9267 26.5384 22.0908 26.8166C22.2976 27.1802 21.3422 29.8328 21.0996 30.4318ZM27.8668 33.6693C27.7027 33.7548 27.5459 33.8119 27.4746 33.7691C27.4246 33.7406 27.5459 33.6265 27.5459 33.6265C27.5459 33.6265 28.3945 32.7136 28.7297 32.3002C28.922 32.0576 29.1504 31.7724 29.3927 31.4515V31.5443C29.3927 32.6353 28.3375 33.3697 27.8668 33.6693ZM33.0865 32.4783C32.9652 32.3927 32.9867 32.1076 33.3931 31.2162C33.55 30.8668 33.9209 30.2822 34.5554 29.7187C34.6267 29.947 34.6767 30.1679 34.6695 30.3748C34.6625 31.7511 33.6783 32.2644 33.0865 32.4783Z" fill="white"/>
</g>
</g>
<defs>
<clipPath id="clip0_493_807">
<rect width="50" height="50" fill="white"/>
</clipPath>
</defs>
</svg>
