<svg width="50" height="50" viewBox="0 0 50 50" fill="none" xmlns="http://www.w3.org/2000/svg">
<g clip-path="url(#clip0_493_842)">
<path d="M38.2812 0H11.7188C5.24666 0 0 5.24666 0 11.7188V38.2812C0 44.7533 5.24666 50 11.7188 50H38.2812C44.7533 50 50 44.7533 50 38.2812V11.7188C50 5.24666 44.7533 0 38.2812 0Z" fill="#242938"/>
<path d="M25 44.5312C35.7867 44.5312 44.5312 35.7867 44.5312 25C44.5312 14.2133 35.7867 5.46875 25 5.46875C14.2133 5.46875 5.46875 14.2133 5.46875 25C5.46875 35.7867 14.2133 44.5312 25 44.5312Z" fill="white"/>
<path d="M33.5389 12.6956C31.5547 12.7648 29.8226 13.8583 28.5338 15.3712C27.1062 17.0298 26.1566 18.997 25.4725 21.0052C24.2482 20.0021 23.3041 18.7032 21.3404 18.137C19.8226 17.7015 18.2285 17.8812 16.7625 18.9736C16.0682 19.4923 15.5896 20.2765 15.3621 21.0136C14.773 22.929 15.9814 24.6339 16.5303 25.246L17.7303 26.532C17.9775 26.7843 18.5734 27.4419 18.2822 28.3849C17.9674 29.4105 16.7314 30.0741 15.4633 29.6831C14.8969 29.5103 14.0834 29.0884 14.2658 28.4945C14.341 28.2513 14.5148 28.0697 14.6082 27.8597C14.6935 27.679 14.7346 27.5437 14.7605 27.4642C14.9922 26.7077 14.6756 25.7238 13.8656 25.4741C13.1098 25.2425 12.3363 25.4259 12.0367 26.3991C11.6967 27.5046 12.2256 29.5109 15.0596 30.3847C18.3797 31.4048 21.1883 29.597 21.5865 27.2392C21.8375 25.7624 21.1707 24.6654 19.949 23.254L18.9537 22.1534C18.3508 21.5509 18.1437 20.5243 18.7678 19.7355C19.2943 19.0698 20.0441 18.7857 21.2725 19.1196C23.0652 19.6066 23.8644 20.8505 25.1978 21.8536C24.6473 23.6597 24.2875 25.4724 23.9619 27.0978L23.7633 28.3097C22.81 33.3095 22.0824 36.0548 20.1916 37.631C19.8107 37.9017 19.266 38.3073 18.4451 38.3357C18.0148 38.3489 17.876 38.0529 17.8699 37.9239C17.8598 37.622 18.1141 37.4835 18.2834 37.3476C18.5361 37.2097 18.9182 36.981 18.8924 36.2486C18.8646 35.3833 18.1478 34.6327 17.1117 34.6671C16.3353 34.6937 15.1521 35.4241 15.1967 36.7614C15.243 38.1425 16.5303 39.1777 18.4711 39.112C19.5086 39.0765 21.8256 38.654 24.1088 35.94C26.7662 32.8286 27.5094 29.2618 28.0685 26.6513L28.6926 23.2048C29.0393 23.2462 29.41 23.2739 29.8131 23.2835C33.123 23.3534 34.7785 21.6388 34.8031 20.3919C34.8195 19.6372 34.308 18.8947 33.5918 18.9114C33.0791 18.9259 32.4351 19.2671 32.2805 19.9761C32.1295 20.6718 33.3336 21.2995 32.3924 21.9091C31.7238 22.3417 30.525 22.6468 28.8369 22.3989L29.1439 20.7025C29.7703 17.4853 30.5432 13.5279 33.4744 13.4316C33.6881 13.4208 34.4697 13.4413 34.4879 13.9581C34.4934 14.1308 34.4506 14.1749 34.2482 14.5702C34.0426 14.8782 33.9648 15.1405 33.9746 15.4421C34.0027 16.2636 34.6275 16.8034 35.5307 16.771C36.7404 16.732 37.0883 15.5542 37.0684 14.9493C37.0195 13.5284 35.5217 12.6308 33.5389 12.6956Z" fill="#242938"/>
</g>
<defs>
<clipPath id="clip0_493_842">
<rect width="50" height="50" fill="white"/>
</clipPath>
</defs>
</svg>
