<svg width="50" height="50" viewBox="0 0 50 50" fill="none" xmlns="http://www.w3.org/2000/svg">
<g clip-path="url(#clip0_493_871)">
<path d="M38.2812 0H11.7188C5.24666 0 0 5.24666 0 11.7188V38.2812C0 44.7533 5.24666 50 11.7188 50H38.2812C44.7533 50 50 44.7533 50 38.2812V11.7188C50 5.24666 44.7533 0 38.2812 0Z" fill="#0073AA"/>
<path d="M8.24488 24.9988C8.24488 31.6306 12.099 37.3619 17.6877 40.0779L9.69546 18.1802C8.73741 20.3256 8.2431 22.6492 8.24488 24.9988ZM36.3101 24.1533C36.3101 22.0828 35.5664 20.6488 34.9285 19.5326C34.0791 18.1525 33.283 16.9837 33.283 15.6037C33.283 14.0634 34.4511 12.6298 36.0964 12.6298C36.1709 12.6298 36.2412 12.639 36.3136 12.6431C33.3328 9.91226 29.3615 8.24487 24.9994 8.24487C19.1462 8.24487 13.9964 11.248 11.0007 15.7968C11.3937 15.8085 11.7642 15.8169 12.0789 15.8169C13.8314 15.8169 16.5441 15.6041 16.5441 15.6041C17.4472 15.5509 17.5539 16.8775 16.6515 16.9843C16.6515 16.9843 15.7439 17.0912 14.7339 17.1441L20.8351 35.2921L24.5017 24.2955L21.8914 17.1435C20.9892 17.0906 20.1345 16.9837 20.1345 16.9837C19.2316 16.9308 19.3375 15.5503 20.2404 15.6037C20.2404 15.6037 23.0072 15.8162 24.6535 15.8162C26.4058 15.8162 29.1187 15.6037 29.1187 15.6037C30.0226 15.5503 30.1287 16.8769 29.2261 16.9837C29.2261 16.9837 28.3166 17.0906 27.3086 17.1435L33.3634 35.1541L35.0345 29.5697C35.7589 27.2521 36.3101 25.5876 36.3101 24.1533Z" fill="white"/>
<path d="M25.2936 26.4644L20.2666 41.0718C21.8035 41.5245 23.3974 41.7543 24.9996 41.7544C26.8946 41.7551 28.7759 41.4339 30.5633 40.8046C30.5168 40.7313 30.4769 40.6541 30.4441 40.5737L25.2936 26.4644ZM39.701 16.9604C39.7772 17.5315 39.8149 18.107 39.8139 18.6831C39.8139 20.3833 39.4963 22.2946 38.5398 24.6845L33.4221 39.4812C38.4031 36.5765 41.7535 31.1802 41.7535 24.9991C41.7537 22.086 41.0098 19.3468 39.701 16.9604Z" fill="white"/>
<path d="M24.9996 5.46875C14.2305 5.46875 5.46875 14.2299 5.46875 24.9988C5.46875 35.7691 14.2305 44.5299 24.9996 44.5299C35.7682 44.5299 44.5312 35.7691 44.5312 24.9988C44.5309 14.2299 35.7682 5.46875 24.9996 5.46875ZM24.9996 43.6348C14.7242 43.6348 6.36426 35.2746 6.36426 24.9988C6.36426 14.7236 14.724 6.36426 24.9996 6.36426C35.2744 6.36426 43.6338 14.7236 43.6338 24.9988C43.6338 35.2746 35.2744 43.6348 24.9996 43.6348Z" fill="white"/>
</g>
<defs>
<clipPath id="clip0_493_871">
<rect width="50" height="50" fill="white"/>
</clipPath>
</defs>
</svg>
